<svg width="477" height="472" viewBox="0 0 477 472" fill="none" xmlns="http://www.w3.org/2000/svg">
<path d="M104.5 310.804V295.844C104.5 289.086 97.33 284.739 91.3382 287.864L4.83821 332.977C1.86466 334.528 0 337.603 0 340.957V350.427C0 353.842 1.93226 356.962 4.98892 358.484L229.076 470.046C231.553 471.28 234.459 471.305 236.958 470.115L471.371 358.444C474.504 356.951 476.5 353.789 476.5 350.318V341.004C476.5 337.626 474.608 334.532 471.6 332.992L383.1 287.704C377.111 284.639 370 288.988 370 295.716V310.992C370 314.106 371.61 316.998 374.255 318.64L409.745 340.657C415.846 344.442 415.276 353.496 408.749 356.487L236.793 435.262C234.387 436.364 231.618 436.352 229.223 435.228L62.0846 356.822C55.5007 353.733 55.1089 344.516 61.4069 340.88L100 318.598C102.785 316.99 104.5 314.019 104.5 310.804Z" fill="#DF792C"/>
<path d="M195.5 280V41H172V311.5H339V280H195.5Z" fill="url(#paint0_linear_18_2)"/>
<path d="M150 123H126V366.5H285.5V334H150V123Z" fill="url(#paint1_linear_18_2)"/>
<path d="M373.5 7L444 87.5H298V7H373.5Z" fill="#80B1FF"/>
<path d="M210.5 258V6.5H369.5V115H443V258H210.5Z" fill="#3B82F6"/>
<path d="M329.5 90.5H248.5V117H329.5V90.5Z" fill="white"/>
<path d="M404 140.5H248.5V168.5H404V140.5Z" fill="white"/>
<path d="M367.5 189H248.5V213.5H367.5V189Z" fill="white"/>
<path d="M110 144.551V226.5C110 232.023 105.523 236.5 100 236.5H16.5C10.9772 236.5 6.5 232.023 6.5 226.5V162.528C6.5 160.869 6.89399 159.236 7.76053 157.822C12.8926 149.444 25.3506 133.875 44.5038 121.439C48.2697 118.994 53.175 119.776 57.0156 122.102C68.6328 129.138 87.0601 132.737 100.486 134.228C105.798 134.818 110 139.207 110 144.551Z" fill="#FBBF24"/>
<circle cx="94.5" cy="56" r="56" fill="#FBBF24"/>
<defs>
<linearGradient id="paint0_linear_18_2" x1="232.5" y1="41" x2="232.5" y2="366.5" gradientUnits="userSpaceOnUse">
<stop stop-color="#D9D9D9"/>
<stop offset="1" stop-color="#003549"/>
</linearGradient>
<linearGradient id="paint1_linear_18_2" x1="232.5" y1="41" x2="232.5" y2="366.5" gradientUnits="userSpaceOnUse">
<stop stop-color="#D9D9D9"/>
<stop offset="1" stop-color="#003549"/>
</linearGradient>
</defs>
</svg>
